<?xml version="1.0" encoding="utf-8"?>
<!-- Generator: Adobe Illustrator 15.0.0, SVG Export Plug-In . SVG Version: 6.00 Build 0)  -->
<!DOCTYPE svg PUBLIC "-//W3C//DTD SVG 1.1//EN" "http://www.w3.org/Graphics/SVG/1.1/DTD/svg11.dtd">
<svg version="1.1" id="Layer_1" xmlns="http://www.w3.org/2000/svg" xmlns:xlink="http://www.w3.org/1999/xlink" x="0px" y="0px"
	 width="734.688px" height="493px" viewBox="0 0 734.688 493" enable-background="new 0 0 734.688 493" xml:space="preserve">
<path d="M690.215,13H29.785C20.515,13,13,20.515,13,29.785v432.431C13,471.485,20.515,479,29.785,479h660.431
	c9.27,0,16.785-7.515,16.785-16.785V29.785C707,20.515,699.485,13,690.215,13z"/>
<g>
	<path fill="#FFFFFF" d="M337.391,182.612c1.144,0.504,2.125,1.173,2.954,1.998c0.822,0.824,1.489,1.804,1.991,2.949
		c0.505,1.137,0.762,2.349,0.762,3.623v44.97c0,0.427-0.146,0.785-0.44,1.077c-0.296,0.295-0.647,0.438-1.079,0.438h-11.083
		c-0.421,0-0.771-0.143-1.038-0.438c-0.259-0.292-0.393-0.649-0.393-1.077v-40.739h-8.93v40.739c0,0.427-0.129,0.785-0.403,1.077
		c-0.261,0.295-0.604,0.438-1.036,0.438h-10.043c-0.429,0-0.79-0.143-1.074-0.438c-0.293-0.292-0.436-0.649-0.436-1.077v-40.739
		h-8.94v40.739c0,1.01-0.502,1.515-1.51,1.515h-10.996c-1.015,0-1.519-0.505-1.519-1.515v-52.784c0-1.005,0.504-1.51,1.519-1.51
		h48.067C335.048,181.856,336.251,182.109,337.391,182.612z"/>
	<path fill="#FFFFFF" d="M391.836,181.856c1.279,0,2.494,0.252,3.631,0.755c1.137,0.504,2.125,1.173,2.952,1.998
		c0.822,0.824,1.484,1.804,1.984,2.949c0.505,1.137,0.764,2.349,0.764,3.623v37.158c0,1.279-0.259,2.485-0.764,3.625
		c-0.5,1.143-1.163,2.145-1.984,2.997c-0.827,0.846-1.814,1.512-2.952,1.989c-1.137,0.479-2.352,0.716-3.631,0.716h-28.219
		c-1.279,0-2.485-0.237-3.623-0.716c-1.146-0.477-2.146-1.144-2.999-1.989c-0.844-0.852-1.513-1.854-1.987-2.997
		c-0.479-1.139-0.723-2.345-0.723-3.625v-37.158c0-1.273,0.244-2.485,0.723-3.623c0.474-1.146,1.143-2.125,1.987-2.949
		c0.852-0.824,1.853-1.493,2.999-1.998c1.137-0.503,2.343-0.755,3.623-0.755H391.836z M387.055,195.412H368.32v28.701h18.735
		V195.412z"/>
	<path fill="#FFFFFF" d="M449.203,204.823c1.142,0.475,2.125,1.144,2.95,1.987c0.828,0.854,1.488,1.834,1.991,2.952
		c0.503,1.117,0.761,2.311,0.761,3.588v14.99c0,1.279-0.258,2.485-0.761,3.625c-0.503,1.143-1.163,2.145-1.991,2.997
		c-0.825,0.846-1.808,1.512-2.95,1.989c-1.139,0.479-2.347,0.716-3.631,0.716h-31.807c-1.01,0-1.521-0.505-1.521-1.515v-9.644
		c0-0.431,0.155-0.785,0.444-1.076c0.293-0.295,0.647-0.442,1.077-0.442h27.108c0.423,0,0.783-0.129,1.079-0.395
		c0.289-0.268,0.434-0.615,0.434-1.036v-6.621c0-0.425-0.145-0.786-0.434-1.079c-0.295-0.293-0.656-0.438-1.079-0.438h-19.294
		c-1.279,0-2.487-0.235-3.622-0.714c-1.146-0.483-2.14-1.144-3.001-1.996c-0.844-0.852-1.51-1.832-1.987-2.949
		c-0.477-1.118-0.725-2.317-0.725-3.59v-14.99c0-1.273,0.248-2.485,0.725-3.623c0.477-1.146,1.143-2.125,1.987-2.949
		c0.861-0.824,1.855-1.493,3.001-1.998c1.135-0.503,2.343-0.755,3.622-0.755h30.058c1.008,0,1.513,0.505,1.513,1.51v9.812
		c0,0.423-0.142,0.77-0.436,1.036c-0.293,0.268-0.654,0.401-1.077,0.401H426.2c-0.425,0-0.766,0.143-1.038,0.438
		c-0.256,0.291-0.395,0.654-0.395,1.077v6.457c0,0.42,0.138,0.783,0.395,1.077c0.272,0.293,0.613,0.436,1.038,0.436h19.372
		C446.855,204.1,448.063,204.337,449.203,204.823z"/>
	<path fill="#FFFFFF" d="M503.467,181.856c1.271,0,2.479,0.252,3.623,0.755c1.146,0.504,2.125,1.173,2.958,1.998
		c0.816,0.824,1.484,1.804,1.989,2.949c0.505,1.137,0.755,2.349,0.755,3.623v44.97c0,0.427-0.142,0.785-0.434,1.077
		c-0.295,0.295-0.656,0.438-1.085,0.438h-11.077c-0.425,0-0.781-0.143-1.079-0.438c-0.291-0.292-0.434-0.649-0.434-1.077v-14.27
		c0-0.431-0.134-0.785-0.395-1.076c-0.273-0.296-0.615-0.442-1.042-0.442h-15.784c-0.425,0-0.792,0.146-1.081,0.442
		c-0.289,0.291-0.434,0.645-0.434,1.076v14.27c0,1.01-0.511,1.515-1.521,1.515h-11.001c-1.007,0-1.51-0.505-1.51-1.515v-44.97
		c0-1.273,0.231-2.485,0.712-3.623c0.485-1.146,1.146-2.125,1.998-2.949c0.844-0.824,1.84-1.493,2.982-1.998
		c1.147-0.503,2.36-0.755,3.633-0.755H503.467z M498.684,208.404v-14.028h-18.735v14.028H498.684z"/>
	<path fill="#FFFFFF" d="M538.185,236.151c0,1.01-0.507,1.515-1.517,1.515h-11.001c-1.014,0-1.519-0.505-1.519-1.515v-52.784
		c0-1.005,0.505-1.51,1.519-1.51h11.001c1.009,0,1.517,0.505,1.517,1.51V236.151z"/>
	<path fill="#FFFFFF" d="M563.779,195.809c-0.293,0.266-0.445,0.611-0.445,1.034v25.838c0,0.42,0.151,0.768,0.445,1.035
		c0.289,0.263,0.645,0.397,1.07,0.397h25.6c0.418,0,0.774,0.145,1.074,0.438c0.289,0.296,0.438,0.654,0.438,1.079v10.521
		c0,0.427-0.149,0.785-0.438,1.077c-0.3,0.295-0.656,0.438-1.074,0.438h-16.664h-13.719h-1.43c-1.282,0-2.488-0.237-3.627-0.716
		c-1.142-0.477-2.138-1.144-2.997-1.989c-0.844-0.852-1.513-1.854-1.989-2.997c-0.477-1.139-0.716-2.345-0.716-3.625v-1.437v-5.819
		v-18.58v-5.182v-6.14c0-1.273,0.239-2.485,0.716-3.623c0.477-1.146,1.146-2.125,1.989-2.949c0.858-0.824,1.855-1.493,2.997-1.998
		c1.139-0.503,2.345-0.755,3.627-0.755h1.43h30.383c0.418,0,0.774,0.151,1.074,0.436c0.289,0.293,0.438,0.651,0.438,1.074v10.526
		c0,0.429-0.149,0.783-0.438,1.077c-0.3,0.295-0.656,0.442-1.074,0.442h-25.6C564.424,195.412,564.068,195.543,563.779,195.809z"/>
	<path fill="#FFFFFF" d="M151.114,252.33c0.285,0.293,0.438,0.654,0.438,1.077v44.97c0,1.282-0.254,2.488-0.75,3.625
		c-0.511,1.146-1.172,2.147-2.002,2.997c-0.818,0.848-1.806,1.515-2.945,1.991c-1.141,0.477-2.358,0.716-3.631,0.716h-23.998
		c-1.268,0-2.481-0.24-3.626-0.716c-1.142-0.477-2.138-1.143-2.984-1.991c-0.858-0.85-1.517-1.851-2.002-2.997
		c-0.479-1.137-0.716-2.343-0.716-3.625v-17.059c0-1.008,0.507-1.519,1.519-1.519h10.996c1.008,0,1.517,0.511,1.517,1.519v11.398
		c0,0.425,0.145,0.77,0.44,1.035c0.289,0.268,0.645,0.401,1.081,0.401h11.555c0.423,0,0.788-0.134,1.077-0.401
		c0.291-0.265,0.434-0.61,0.434-1.035v-39.309c0-0.423,0.138-0.783,0.403-1.077c0.266-0.285,0.606-0.434,1.036-0.434h11.085
		C150.458,251.896,150.823,252.045,151.114,252.33z"/>
	<path fill="#FFFFFF" d="M209.294,252.33c0.287,0.293,0.436,0.654,0.436,1.077v44.97c0,1.282-0.259,2.488-0.762,3.625
		c-0.507,1.146-1.167,2.147-1.991,2.997c-0.824,0.848-1.812,1.515-2.949,1.991c-1.144,0.477-2.35,0.716-3.631,0.716H172.18
		c-1.282,0-2.488-0.24-3.631-0.716c-1.146-0.477-2.138-1.143-2.99-1.991c-0.848-0.85-1.512-1.851-1.991-2.997
		c-0.472-1.137-0.721-2.343-0.721-3.625v-44.97c0-1.007,0.505-1.51,1.519-1.51h11c1.01,0,1.513,0.503,1.513,1.51v39.309
		c0,0.425,0.153,0.77,0.436,1.035c0.302,0.268,0.656,0.401,1.081,0.401h15.786c0.423,0,0.764-0.134,1.038-0.401
		c0.259-0.265,0.395-0.61,0.395-1.035v-39.309c0-0.423,0.151-0.783,0.436-1.077c0.302-0.285,0.656-0.434,1.077-0.434h11.091
		C208.643,251.896,208.994,252.045,209.294,252.33z"/>
	<path fill="#FFFFFF" d="M262.266,252.651c1.147,0.504,2.125,1.171,2.954,1.998c0.824,0.824,1.491,1.804,1.991,2.949
		c0.507,1.137,0.759,2.35,0.759,3.623v44.97c0,0.423-0.151,0.786-0.444,1.077c-0.285,0.295-0.645,0.438-1.077,0.438h-11.076
		c-0.421,0-0.777-0.143-1.036-0.438c-0.271-0.291-0.399-0.654-0.399-1.077v-39.309c0-0.423-0.142-0.769-0.444-1.036
		c-0.287-0.263-0.649-0.395-1.07-0.395h-15.786c-0.43,0-0.79,0.131-1.077,0.395c-0.298,0.267-0.44,0.613-0.44,1.036v39.309
		c0,1.008-0.505,1.515-1.519,1.515h-10.997c-1.01,0-1.515-0.507-1.515-1.515v-52.784c0-1.007,0.505-1.51,1.515-1.51h36.041
		C259.919,251.896,261.125,252.146,262.266,252.651z"/>
	<path fill="#FFFFFF" d="M293.605,265.846c-0.3,0.267-0.442,0.613-0.442,1.036v25.833c0,0.425,0.142,0.77,0.442,1.035
		c0.287,0.268,0.649,0.401,1.076,0.401h25.587c0.423,0,0.786,0.145,1.077,0.438c0.287,0.293,0.436,0.654,0.436,1.077v10.524
		c0,0.423-0.149,0.786-0.436,1.077c-0.291,0.295-0.653,0.438-1.077,0.438h-16.662h-13.715h-1.437c-1.266,0-2.48-0.24-3.625-0.716
		c-1.144-0.477-2.138-1.143-2.988-1.991c-0.854-0.85-1.517-1.851-1.996-2.997c-0.481-1.137-0.718-2.343-0.718-3.625v-1.434v-5.819
		v-18.58v-5.182v-6.14c0-1.273,0.237-2.485,0.718-3.623c0.479-1.146,1.141-2.125,1.996-2.949c0.85-0.826,1.844-1.493,2.988-1.998
		c1.144-0.505,2.358-0.755,3.625-0.755h1.437h30.377c0.423,0,0.786,0.149,1.077,0.434c0.287,0.293,0.436,0.654,0.436,1.077v10.526
		c0,0.429-0.149,0.783-0.436,1.076c-0.291,0.294-0.653,0.443-1.077,0.443h-25.587C294.254,265.452,293.892,265.583,293.605,265.846z
		"/>
	<path fill="#FFFFFF" d="M374.238,263.933c0,0.429-0.136,0.783-0.436,1.076c-0.287,0.294-0.653,0.443-1.076,0.443h-11.32
		c-0.425,0-0.779,0.131-1.079,0.395c-0.285,0.267-0.434,0.613-0.434,1.036v39.309c0,0.423-0.131,0.786-0.396,1.077
		c-0.272,0.295-0.613,0.438-1.034,0.438h-11.084c-0.43,0-0.784-0.143-1.077-0.438c-0.295-0.291-0.442-0.654-0.442-1.077v-39.309
		c0-0.423-0.13-0.769-0.395-1.036c-0.27-0.263-0.613-0.395-1.038-0.395h-11.32c-0.423,0-0.786-0.149-1.077-0.443
		c-0.287-0.293-0.434-0.647-0.434-1.076v-10.526c0-1.007,0.5-1.51,1.51-1.51h11.32h2.952h11.084h2.943h11.32
		c0.423,0,0.79,0.149,1.076,0.434c0.3,0.293,0.436,0.654,0.436,1.077V263.933z"/>
	<path fill="#FFFFFF" d="M398.123,306.19c0,1.008-0.503,1.515-1.51,1.515h-11.009c-1.012,0-1.513-0.507-1.513-1.515v-52.784
		c0-1.007,0.5-1.51,1.513-1.51h11.009c1.007,0,1.51,0.503,1.51,1.51V306.19z"/>
	<path fill="#FFFFFF" d="M446.828,251.896c1.273,0,2.485,0.25,3.631,0.755c1.135,0.504,2.125,1.171,2.941,1.998
		c0.83,0.824,1.493,1.804,1.998,2.949c0.505,1.137,0.755,2.35,0.755,3.623v37.155c0,1.282-0.25,2.488-0.755,3.625
		c-0.505,1.146-1.167,2.147-1.998,2.997c-0.815,0.848-1.806,1.515-2.941,1.991c-1.146,0.477-2.358,0.716-3.631,0.716h-28.224
		c-1.275,0-2.481-0.24-3.625-0.716c-1.147-0.477-2.14-1.143-2.992-1.991c-0.852-0.85-1.517-1.851-1.998-2.997
		c-0.475-1.137-0.712-2.343-0.712-3.625v-37.155c0-1.273,0.237-2.485,0.712-3.623c0.481-1.146,1.146-2.125,1.998-2.949
		c0.852-0.826,1.845-1.493,2.992-1.998c1.144-0.505,2.35-0.755,3.625-0.755H446.828z M442.044,265.452h-18.737v28.7h18.737V265.452z
		"/>
	<path fill="#FFFFFF" d="M508.569,252.651c1.144,0.504,2.123,1.171,2.949,1.998c0.827,0.824,1.491,1.804,1.994,2.949
		c0.507,1.137,0.751,2.35,0.751,3.623v44.97c0,0.423-0.143,0.786-0.436,1.077c-0.291,0.295-0.654,0.438-1.077,0.438h-11.076
		c-0.429,0-0.777-0.143-1.036-0.438c-0.272-0.291-0.401-0.654-0.401-1.077v-39.309c0-0.423-0.143-0.769-0.442-1.036
		c-0.287-0.263-0.649-0.395-1.074-0.395h-15.786c-0.431,0-0.785,0.131-1.072,0.395c-0.3,0.267-0.443,0.613-0.443,1.036v39.309
		c0,1.008-0.509,1.515-1.517,1.515h-10.996c-1.017,0-1.521-0.507-1.521-1.515v-52.784c0-1.007,0.504-1.51,1.521-1.51h36.038
		C506.211,251.896,507.424,252.146,508.569,252.651z"/>
</g>
<g>
	<path fill="#FFFFFF" d="M689.96,0H30.04C13.449,0,0,13.45,0,30.041v432.919C0,479.55,13.449,493,30.04,493h659.92
		c16.591,0,30.04-13.45,30.04-30.041V30.041C720,13.45,706.551,0,689.96,0z M707,462.215c0,9.27-7.515,16.785-16.785,16.785H29.785
		C20.515,479,13,471.485,13,462.215V29.785C13,20.515,20.515,13,29.785,13h660.431C699.485,13,707,20.515,707,29.785V462.215z"/>
</g>
<g>
	<path fill="#FFBE00" d="M537,167.484c0,1.01-0.507,1.516-1.517,1.516h-9.962c-1.014,0-1.521-0.506-1.521-1.516V141"/>
</g>
<path fill="#FFBE00" d="M526.45,113c-5.247-4-12.049-7-19.489-7H282.039C265.449,106,252,119.45,252,136.041v98.444
	c0,1.01,0.507,1.516,1.521,1.516h9.962c1.009,0,1.517-0.506,1.517-1.516v-98.699c0-9.27,7.515-16.785,16.784-16.785h225.432
	c9.27,0,16.784,7.515,16.784,16.785V141v26.484c0,1.01,0.507,1.516,1.521,1.516h9.962c1.009,0,1.517-0.506,1.517-1.516v-31.444
	C537,126.89,532.903,119,526.45,113z"/>
<path fill="#FFBE00" d="M590.483,252h-9.967c-0.837,0-1.517,0.676-1.517,1.51V255v99.059c0,9.271-7.515,16.941-16.784,16.941
	H336.784c-9.27,0-16.784-7.515-16.784-16.785v-31.682c0-1.005-0.507-1.533-1.517-1.533h-9.962c-1.014,0-1.521,0.528-1.521,1.533
	v32.522c0,8.586,3.661,15.944,9.459,21.944c5.376,5,12.613,8,20.58,8h224.922c16.59,0,30.039-13.449,30.039-30.041V253.51
	C592,252.676,591.321,252,590.483,252z"/>
<g>
	<path fill="#FFFFFF" d="M723.561,1.441h-2.549v7.998h-1.652V1.441h-2.549V0h6.75V1.441z M733.053,3.41l-0.105-0.035l-2.637,6.064
		h-0.896l-2.742-6.311l-0.105,0.035v6.275h-1.635V0h2.039l2.83,6.855h0.105L732.754,0h1.934v9.439h-1.635V3.41z"/>
</g>
</svg>
