<?xml version="1.0" encoding="utf-8"?>
<!-- Generator: Adobe Illustrator 15.0.0, SVG Export Plug-In . SVG Version: 6.00 Build 0)  -->
<!DOCTYPE svg PUBLIC "-//W3C//DTD SVG 1.1//EN" "http://www.w3.org/Graphics/SVG/1.1/DTD/svg11.dtd">
<svg version="1.1" id="Layer_2" xmlns="http://www.w3.org/2000/svg" xmlns:xlink="http://www.w3.org/1999/xlink" x="0px" y="0px"
	 width="17px" height="16px" viewBox="0 0 17 16" enable-background="new 0 0 17 16" xml:space="preserve">
<path fill="#C9C9C9" d="M0,0v4v3v1v3v1v3v1h1h3h1h3h1h3h1h3h1v-1v-3v-1V8V7V4V0H0z M12,4v3H9V4H12z M9,8h3v3H9V8z M8,11H5V8h3V11z
	 M8,4v3H5V4H8z M1,4h3v3H1V4z M1,8h3v3H1V8z M1,15v-3h3v3H1z M5,15v-3h3v3H5z M9,15v-3h3v3H9z M16,15h-3v-3h3V15z M16,11h-3V8h3V11z
	 M16,7h-3V4h3V7z"/>
</svg>
