<?xml version="1.0" encoding="utf-8"?>
<!-- Generator: Adobe Illustrator 15.0.0, SVG Export Plug-In . SVG Version: 6.00 Build 0)  -->
<!DOCTYPE svg PUBLIC "-//W3C//DTD SVG 1.1//EN" "http://www.w3.org/Graphics/SVG/1.1/DTD/svg11.dtd">
<svg version="1.1" id="Layer_1" xmlns="http://www.w3.org/2000/svg" xmlns:xlink="http://www.w3.org/1999/xlink" x="0px" y="0px"
	 width="24px" height="24px" viewBox="-1 -1 26 26" enable-background="new 0 0 24 24" xml:space="preserve">
<path d="M21.802,21.608l-7.013-7.013c1.502-1.55,2.43-3.658,2.43-5.986c0-4.755-3.854-8.61-8.609-8.61S0,3.854,0,8.609
	c0,4.755,3.854,8.609,8.609,8.609c1.39,0,2.699-0.337,3.861-0.922l7.322,7.321c0.277,0.277,0.642,0.416,1.005,0.416
	s0.728-0.139,1.005-0.416C22.356,23.063,22.356,22.163,21.802,21.608z M2,8.609C2,4.965,4.965,2,8.609,2s6.609,2.965,6.609,6.61
	s-2.965,6.609-6.609,6.609S2,12.254,2,8.609z" stroke="#000000" stroke-width=".5" fill="#FFFFFF"/>
</svg>
