<?xml version="1.0" encoding="utf-8"?>
<!-- Generator: Adobe Illustrator 15.0.0, SVG Export Plug-In . SVG Version: 6.00 Build 0)  -->
<!DOCTYPE svg PUBLIC "-//W3C//DTD SVG 1.1//EN" "http://www.w3.org/Graphics/SVG/1.1/DTD/svg11.dtd">
<svg version="1.1" id="Layer_1" xmlns="http://www.w3.org/2000/svg" xmlns:xlink="http://www.w3.org/1999/xlink" x="0px" y="0px"
	 width="18px" height="17.383px" viewBox="0 0 18 17.383" enable-background="new 0 0 18 17.383" xml:space="preserve">
<path d="M16.329,8.718l-0.48-2.246l1.548-0.894l-1.383-2.396L14.408,4.11l-1.73-1.347l0.662-1.818L10.741,0l-0.656,1.803
	L7.944,1.881L7.26,0L4.661,0.945L5.3,2.699L3.681,4.16L1.987,3.183L0.604,5.578L2.1,6.441L1.787,8.697L0,9.013l0.481,2.723
	l1.533-0.271l1.272,2.022l-1.062,1.266l2.119,1.777l0.781-1.107l2.255,0.776v1.184h3v-1.115l2.267-0.904l0.993,1.167l2.127-1.777
	l-0.977-1.168l1.132-2.131l1.596,0.281L18,9.013L16.329,8.718z M10.957,11.278l-1.798,0.728l-1.847-0.597L6.279,9.768l0.267-1.921
	l1.44-1.301l1.939-0.07l1.532,1.192l0.406,1.898L10.957,11.278z"/>
</svg>
