<?xml version="1.0" encoding="utf-8"?>
<!-- Generator: Adobe Illustrator 15.1.0, SVG Export Plug-In . SVG Version: 6.00 Build 0)  -->
<!DOCTYPE svg PUBLIC "-//W3C//DTD SVG 1.1//EN" "http://www.w3.org/Graphics/SVG/1.1/DTD/svg11.dtd">
<svg version="1.1" id="Layer_1" xmlns="http://www.w3.org/2000/svg" xmlns:xlink="http://www.w3.org/1999/xlink" x="0px" y="0px"
	 width="717px" height="61.956px" viewBox="0 0 717 61.956" enable-background="new 0 0 717 61.956" xml:space="preserve">
<g>
	<path fill="#FFFFFF" d="M16.436,37.329l0.887,3.089h0.16l0.887-3.089l10.098-29.38h5.721L19.658,47.051h-4.539L0.591,7.949h5.747
		L16.436,37.329z"/>
	<path fill="#FFFFFF" d="M44.338,10.555h-5.29V5.156h5.29V10.555z M44.338,47.051h-5.29V17.993h5.29V47.051z"/>
	<path fill="#FFFFFF" d="M69.367,39.316c0-1.164-0.443-2.121-1.328-2.873c-0.887-0.752-2.565-1.406-5.036-1.961
		c-3.527-0.769-6.181-1.81-7.962-3.124c-1.782-1.313-2.673-3.105-2.673-5.376c0-2.359,1.003-4.37,3.008-6.032
		c2.005-1.663,4.619-2.494,7.842-2.494c3.384,0,6.073,0.868,8.069,2.604c1.997,1.737,2.95,3.85,2.861,6.338l-0.055,0.162h-5.049
		c0-1.271-0.532-2.413-1.598-3.425c-1.064-1.011-2.475-1.517-4.229-1.517c-1.88,0-3.276,0.411-4.189,1.234
		c-0.913,0.824-1.37,1.817-1.37,2.981c0,1.146,0.403,2.05,1.209,2.712c0.806,0.663,2.443,1.254,4.914,1.773
		c3.67,0.787,6.4,1.857,8.191,3.209c1.79,1.352,2.686,3.164,2.686,5.438c0,2.578-1.043,4.664-3.129,6.258s-4.812,2.391-8.178,2.391
		c-3.705,0-6.624-0.94-8.754-2.82c-2.131-1.88-3.143-4.073-3.035-6.58l0.054-0.16h5.049c0.089,1.87,0.788,3.237,2.095,4.102
		s2.838,1.296,4.592,1.296c1.881,0,3.354-0.38,4.418-1.142C68.835,41.55,69.367,40.552,69.367,39.316z"/>
	<path fill="#FFFFFF" d="M99.688,42.754c-0.913,1.558-2.086,2.757-3.518,3.599c-1.434,0.842-3.089,1.263-4.969,1.263
		c-3.169,0-5.64-1.012-7.412-3.035s-2.658-5.174-2.658-9.453V17.993h5.29v17.188c0,3.098,0.456,5.228,1.37,6.392
		c0.912,1.164,2.336,1.746,4.27,1.746c1.88,0,3.434-0.381,4.659-1.142c1.227-0.761,2.153-1.84,2.78-3.236V17.993h5.29v29.058h-4.753
		L99.688,42.754z"/>
	<path fill="#FFFFFF" d="M130.356,47.051c-0.179-0.877-0.317-1.651-0.416-2.323c-0.099-0.671-0.157-1.347-0.175-2.027
		c-0.984,1.396-2.27,2.564-3.854,3.505c-1.585,0.939-3.29,1.41-5.116,1.41c-3.026,0-5.331-0.774-6.915-2.323
		c-1.585-1.549-2.377-3.684-2.377-6.405c0-2.775,1.123-4.945,3.37-6.513c2.247-1.566,5.295-2.35,9.145-2.35h5.747V27.15
		c0-1.7-0.52-3.048-1.558-4.041c-1.038-0.994-2.507-1.49-4.404-1.49c-1.701,0-3.084,0.434-4.149,1.302
		c-1.064,0.869-1.598,1.911-1.598,3.129h-5.049l-0.054-0.161c-0.107-2.112,0.891-4.046,2.994-5.801
		c2.104-1.755,4.821-2.632,8.151-2.632c3.293,0,5.943,0.837,7.949,2.511c2.004,1.675,3.008,4.087,3.008,7.238v13.991
		c0,1.038,0.053,2.041,0.16,3.008s0.305,1.916,0.592,2.847H130.356z M121.574,43.156c1.916,0,3.644-0.49,5.184-1.473
		c1.539-0.981,2.542-2.106,3.008-3.374v-4.714h-5.936c-2.131,0-3.836,0.536-5.115,1.607c-1.28,1.071-1.92,2.33-1.92,3.776
		c0,1.285,0.402,2.303,1.208,3.053S119.999,43.156,121.574,43.156z"/>
	<path fill="#FFFFFF" d="M148.457,47.051h-5.291V5.156h5.291V47.051z"/>
	<path fill="#FFFFFF" d="M162.314,47.051h-5.291V5.156h5.291V47.051z"/>
	<path fill="#FFFFFF" d="M179.341,36.281l0.94,3.652h0.16l7.145-21.94h5.881l-12.219,33.516c-0.734,1.951-1.786,3.652-3.156,5.103
		c-1.369,1.45-3.219,2.176-5.545,2.176c-0.43,0-0.977-0.05-1.639-0.148s-1.173-0.192-1.531-0.281l0.537-4.163
		c-0.107-0.018,0.211,0,0.954,0.054s1.212,0.08,1.409,0.08c1.129,0,2.051-0.501,2.767-1.504c0.716-1.002,1.315-2.112,1.8-3.33
		l1.262-3.034L167.31,17.993h5.908L179.341,36.281z"/>
	<path fill="#FFFFFF" d="M242.371,30.991c0,4.78-1.482,8.746-4.445,11.897c-2.963,3.15-6.808,4.727-11.534,4.727
		c-4.565,0-8.276-1.576-11.132-4.727c-2.855-3.151-4.283-7.117-4.283-11.897v-6.956c0-4.762,1.428-8.728,4.283-11.896
		s6.566-4.754,11.132-4.754c4.727,0,8.571,1.581,11.534,4.74c2.963,3.16,4.445,7.131,4.445,11.91V30.991z M237.08,23.982
		c0-3.581-0.967-6.518-2.9-8.809c-1.934-2.292-4.529-3.438-7.788-3.438c-3.079,0-5.536,1.146-7.372,3.438
		c-1.835,2.291-2.752,5.228-2.752,8.809v7.009c0,3.616,0.917,6.57,2.752,8.862c1.836,2.292,4.293,3.438,7.372,3.438
		c3.276,0,5.877-1.142,7.802-3.424c1.924-2.283,2.887-5.241,2.887-8.876V23.982z"/>
	<path fill="#FFFFFF" d="M263.022,22.666l-2.712-0.161c-1.396,0-2.574,0.331-3.531,0.993c-0.959,0.663-1.697,1.594-2.217,2.793
		v20.76h-5.29V17.993h4.727l0.511,4.243c0.822-1.504,1.84-2.677,3.047-3.518c1.209-0.842,2.602-1.263,4.177-1.263
		c0.394,0,0.77,0.031,1.128,0.094c0.357,0.063,0.653,0.13,0.887,0.202L263.022,22.666z"/>
	<path fill="#FFFFFF" d="M266.46,33.059c0-4.672,1.021-8.441,3.062-11.306s4.861-4.297,8.459-4.297c1.844,0,3.465,0.372,4.861,1.114
		c1.396,0.743,2.561,1.813,3.491,3.209l0.645-3.786h4.216v29.219c0,3.724-1.083,6.584-3.249,8.58
		c-2.167,1.996-5.29,2.995-9.372,2.995c-1.396,0-2.905-0.193-4.525-0.578c-1.621-0.385-3.049-0.908-4.283-1.57l1.342-4.109
		c0.949,0.537,2.096,0.971,3.438,1.303c1.344,0.331,2.668,0.496,3.975,0.496c2.578,0,4.454-0.586,5.627-1.759
		c1.172-1.173,1.759-2.958,1.759-5.357v-3.276c-0.949,1.218-2.086,2.135-3.411,2.753c-1.324,0.617-2.846,0.927-4.564,0.927
		c-3.563,0-6.365-1.289-8.406-3.867s-3.062-5.953-3.062-10.125V33.059z M271.75,33.623c0,2.918,0.618,5.264,1.854,7.036
		s3.115,2.659,5.64,2.659c1.593,0,2.927-0.363,4.001-1.088c1.074-0.726,1.961-1.75,2.659-3.075V25.781
		c-0.681-1.235-1.567-2.216-2.659-2.94c-1.092-0.726-2.408-1.088-3.947-1.088c-2.524,0-4.414,1.057-5.666,3.169
		c-1.254,2.112-1.881,4.825-1.881,8.137V33.623z"/>
	<path fill="#FFFFFF" d="M316.733,47.051c-0.179-0.877-0.317-1.651-0.416-2.323c-0.099-0.671-0.157-1.347-0.175-2.027
		c-0.984,1.396-2.27,2.564-3.854,3.505c-1.585,0.939-3.29,1.41-5.116,1.41c-3.026,0-5.331-0.774-6.915-2.323
		c-1.585-1.549-2.377-3.684-2.377-6.405c0-2.775,1.123-4.945,3.37-6.513c2.247-1.566,5.295-2.35,9.145-2.35h5.747V27.15
		c0-1.7-0.52-3.048-1.558-4.041c-1.038-0.994-2.507-1.49-4.404-1.49c-1.701,0-3.084,0.434-4.149,1.302
		c-1.064,0.869-1.598,1.911-1.598,3.129h-5.049l-0.054-0.161c-0.107-2.112,0.891-4.046,2.994-5.801
		c2.104-1.755,4.821-2.632,8.151-2.632c3.293,0,5.943,0.837,7.949,2.511c2.004,1.675,3.008,4.087,3.008,7.238v13.991
		c0,1.038,0.053,2.041,0.16,3.008s0.305,1.916,0.592,2.847H316.733z M307.951,43.156c1.916,0,3.644-0.49,5.184-1.473
		c1.539-0.981,2.542-2.106,3.008-3.374v-4.714h-5.936c-2.131,0-3.836,0.536-5.115,1.607c-1.28,1.071-1.92,2.33-1.92,3.776
		c0,1.285,0.402,2.303,1.208,3.053S306.376,43.156,307.951,43.156z"/>
	<path fill="#FFFFFF" d="M333.84,17.993l0.377,4.323c0.967-1.539,2.18-2.734,3.639-3.585c1.459-0.85,3.119-1.275,4.981-1.275
		c3.133,0,5.56,0.918,7.278,2.753s2.578,4.668,2.578,8.5v18.342h-5.291V28.816c0-2.561-0.506-4.378-1.518-5.452
		s-2.556-1.611-4.633-1.611c-1.521,0-2.869,0.367-4.041,1.101c-1.173,0.734-2.108,1.737-2.807,3.008v21.189h-5.291V17.993H333.84z"
		/>
	<path fill="#FFFFFF" d="M366.094,10.555h-5.291V5.156h5.291V10.555z M366.094,47.051h-5.291V17.993h5.291V47.051z"/>
	<path fill="#FFFFFF" d="M379.227,42.889h16.784v4.162h-23.096v-3.732l15.71-21.162h-15.521v-4.163h21.994v3.571L379.227,42.889z"/>
	<path fill="#FFFFFF" d="M413.521,47.615c-4.046,0-7.265-1.348-9.654-4.042c-2.391-2.694-3.585-6.19-3.585-10.487v-1.182
		c0-4.136,1.23-7.577,3.692-10.326c2.462-2.748,5.375-4.122,8.741-4.122c3.921,0,6.884,1.182,8.889,3.545
		c2.006,2.363,3.008,5.515,3.008,9.453v3.304H405.76l-0.081,0.134c0.054,2.785,0.761,5.075,2.122,6.869
		c1.359,1.794,3.267,2.691,5.72,2.691c1.79,0,3.361-0.255,4.713-0.766c1.353-0.51,2.521-1.213,3.505-2.108l2.068,3.441
		c-1.039,1.027-2.408,1.883-4.109,2.568C417.996,47.272,415.938,47.615,413.521,47.615z M412.715,21.619
		c-1.772,0-3.285,0.745-4.539,2.234c-1.253,1.49-2.023,3.359-2.309,5.607l0.053,0.134h13.401v-0.695c0-2.07-0.556-3.802-1.665-5.193
		C416.546,22.314,414.898,21.619,412.715,21.619z"/>
	<path fill="#FFFFFF" d="M457.16,27.822l10.205-19.873h6.043l-13.723,25.352v13.75h-5.264v-14.1L440.913,7.949h6.042L457.16,27.822z
		"/>
	<path fill="#FFFFFF" d="M474.805,32.254c0-4.297,1.164-7.838,3.491-10.622c2.327-2.783,5.487-4.176,9.479-4.176
		c4.029,0,7.211,1.388,9.547,4.163c2.338,2.774,3.506,6.319,3.506,10.635v0.59c0,4.333-1.164,7.878-3.492,10.635
		c-2.327,2.758-5.496,4.137-9.506,4.137c-4.012,0-7.184-1.384-9.521-4.149c-2.336-2.767-3.504-6.307-3.504-10.622V32.254z
		 M480.096,32.83c0,3.076,0.648,5.615,1.947,7.618c1.297,2.003,3.227,3.004,5.787,3.004c2.523,0,4.439-1.001,5.746-3.004
		s1.961-4.542,1.961-7.618v-0.59c0-3.039-0.658-5.569-1.975-7.591c-1.314-2.021-3.244-3.03-5.787-3.03
		c-2.523,0-4.436,1.01-5.732,3.03c-1.299,2.021-1.947,4.552-1.947,7.591V32.83z"/>
	<path fill="#FFFFFF" d="M525.75,42.754c-0.914,1.558-2.086,2.757-3.519,3.599s-3.089,1.263-4.968,1.263
		c-3.17,0-5.641-1.012-7.412-3.035c-1.773-2.023-2.659-5.174-2.659-9.453V17.993h5.29v17.188c0,3.098,0.457,5.228,1.37,6.392
		s2.337,1.746,4.271,1.746c1.879,0,3.433-0.381,4.658-1.142c1.227-0.761,2.153-1.84,2.78-3.236V17.993h5.29v29.058h-4.753
		L525.75,42.754z"/>
	<path fill="#FFFFFF" d="M552.31,22.666l-2.712-0.161c-1.396,0-2.574,0.331-3.531,0.993c-0.959,0.663-1.697,1.594-2.217,2.793v20.76
		h-5.29V17.993h4.727l0.511,4.243c0.822-1.504,1.84-2.677,3.047-3.518c1.209-0.842,2.602-1.263,4.177-1.263
		c0.394,0,0.77,0.031,1.128,0.094c0.357,0.063,0.653,0.13,0.887,0.202L552.31,22.666z"/>
	<path fill="#FFFFFF" d="M601.643,47.051h-5.29l-18.825-30.239l-0.162,0.054v30.186h-5.29V7.949h5.29l18.826,30.186l0.161-0.054
		V7.949h5.29V47.051z"/>
	<path fill="#FFFFFF" d="M609.082,32.254c0-4.297,1.164-7.838,3.491-10.622c2.327-2.783,5.487-4.176,9.479-4.176
		c4.029,0,7.211,1.388,9.547,4.163c2.338,2.774,3.506,6.319,3.506,10.635v0.59c0,4.333-1.164,7.878-3.492,10.635
		c-2.327,2.758-5.496,4.137-9.506,4.137c-4.012,0-7.184-1.384-9.521-4.149c-2.336-2.767-3.504-6.307-3.504-10.622V32.254z
		 M614.373,32.83c0,3.076,0.648,5.615,1.947,7.618c1.297,2.003,3.227,3.004,5.787,3.004c2.523,0,4.439-1.001,5.746-3.004
		s1.961-4.542,1.961-7.618v-0.59c0-3.039-0.658-5.569-1.975-7.591c-1.314-2.021-3.244-3.03-5.787-3.03
		c-2.523,0-4.436,1.01-5.732,3.03c-1.299,2.021-1.947,4.552-1.947,7.591V32.83z"/>
	<path fill="#FFFFFF" d="M648.56,10.984v7.009h5.505v3.921h-5.505v17.645c0,1.36,0.282,2.318,0.847,2.873
		c0.563,0.555,1.311,0.832,2.242,0.832c0.304,0,0.64-0.035,1.006-0.107c0.367-0.071,0.694-0.16,0.98-0.268l0.699,3.625
		c-0.395,0.322-0.972,0.586-1.732,0.792c-0.762,0.206-1.527,0.31-2.297,0.31c-2.148,0-3.857-0.649-5.129-1.947
		s-1.906-3.335-1.906-6.109V21.914h-4.619v-3.921h4.619v-7.009H648.56z"/>
	<path fill="#FFFFFF" d="M672.648,47.615c-4.046,0-7.264-1.348-9.654-4.042s-3.585-6.19-3.585-10.487v-1.182
		c0-4.136,1.231-7.577,3.692-10.326c2.462-2.748,5.375-4.122,8.742-4.122c3.92,0,6.883,1.182,8.889,3.545
		c2.005,2.363,3.008,5.515,3.008,9.453v3.304h-18.853l-0.081,0.134c0.055,2.785,0.762,5.075,2.122,6.869s3.267,2.691,5.72,2.691
		c1.791,0,3.361-0.255,4.713-0.766c1.353-0.51,2.521-1.213,3.506-2.108l2.067,3.441c-1.038,1.027-2.408,1.883-4.108,2.568
		C677.125,47.272,675.066,47.615,672.648,47.615z M671.844,21.619c-1.773,0-3.286,0.745-4.539,2.234
		c-1.254,1.49-2.023,3.359-2.31,5.607l0.054,0.134h13.4v-0.695c0-2.07-0.555-3.802-1.664-5.193
		C675.674,22.314,674.027,21.619,671.844,21.619z"/>
	<path fill="#FFFFFF" d="M706.567,39.316c0-1.164-0.443-2.121-1.329-2.873c-0.887-0.752-2.564-1.406-5.035-1.961
		c-3.527-0.769-6.182-1.81-7.963-3.124c-1.781-1.313-2.672-3.105-2.672-5.376c0-2.359,1.002-4.37,3.008-6.032
		c2.004-1.663,4.619-2.494,7.842-2.494c3.383,0,6.073,0.868,8.069,2.604c1.997,1.737,2.95,3.85,2.86,6.338l-0.054,0.162h-5.049
		c0-1.271-0.532-2.413-1.598-3.425c-1.065-1.011-2.476-1.517-4.229-1.517c-1.881,0-3.277,0.411-4.189,1.234
		c-0.914,0.824-1.37,1.817-1.37,2.981c0,1.146,0.403,2.05,1.208,2.712c0.807,0.663,2.444,1.254,4.915,1.773
		c3.67,0.787,6.4,1.857,8.19,3.209c1.791,1.352,2.686,3.164,2.686,5.438c0,2.578-1.043,4.664-3.128,6.258
		c-2.086,1.594-4.812,2.391-8.178,2.391c-3.706,0-6.624-0.94-8.755-2.82s-3.143-4.073-3.035-6.58l0.055-0.16h5.049
		c0.089,1.87,0.787,3.237,2.094,4.102s2.838,1.296,4.593,1.296c1.88,0,3.353-0.38,4.418-1.142
		C706.035,41.55,706.567,40.552,706.567,39.316z"/>
</g>
</svg>
